<svg xmlns="http://www.w3.org/2000/svg" xmlns:xlink="http://www.w3.org/1999/xlink" xmlns:lucid="lucid" width="1112" height="840"><g transform="translate(-59.99999999999997 -220)" lucid:page-tab-id="0_0"><path d="M80 560h240v160H80z" stroke="#000" stroke-width="2" fill="#c1e4f7"/><use xlink:href="#a" transform="matrix(1,0,0,1,91.99999999999997,572) translate(60.235185185185244 76.93333333333332)"/><path d="M480 560h240v160H480z" stroke="#000" stroke-width="2" fill="#c1e4f7"/><use xlink:href="#b" transform="matrix(1,0,0,1,492,572) translate(15.444444444444557 76.93333333333332)"/><path d="M880 560h240v160H880z" stroke="#000" stroke-width="2" fill="#c1e4f7"/><use xlink:href="#c" transform="matrix(1,0,0,1,892,572) translate(60.297222222222274 76.93333333333332)"/><path d="M880 240h240v160H880z" stroke="#000" stroke-width="2" fill="#ffeca9"/><use xlink:href="#d" transform="matrix(1,0,0,1,892,252) translate(21.834259259259355 76.93333333333332)"/><path d="M480 240h240v160H480z" stroke="#000" stroke-width="2" fill="#ccc"/><use xlink:href="#e" transform="matrix(1,0,0,1,492,252) translate(3.2851851851853127 76.93333333333332)"/><path d="M480 880h240v160H480z" stroke="#000" stroke-width="2" fill="#ffbbb1"/><use xlink:href="#f" transform="matrix(1,0,0,1,492,892) translate(20.531481481481578 76.93333333333332)"/><path d="M322 640h138.5" stroke="#000" stroke-width="2" fill="none"/><path d="M322.03 641H321v-2h1.03z"/><path d="M475.76 640l-14.26 4.64v-9.28z" stroke="#000" stroke-width="2"/><path d="M600 558V419.5" stroke="#000" stroke-width="2" fill="none"/><path d="M601 559h-2v-1.03h2z"/><path d="M600 404.24l4.64 14.26h-9.28z" stroke="#000" stroke-width="2"/><path d="M200 722v238h260.5" stroke="#000" stroke-width="2" fill="none"/><path d="M201 722.03h-2V721h2z"/><path d="M475.76 960l-14.26 4.64v-9.28z" stroke="#000" stroke-width="2"/><path d="M200 558V320h260.5" stroke="#000" stroke-width="2" fill="none"/><path d="M201 559h-2v-1.03h2z"/><path d="M475.76 320l-14.26 4.64v-9.28z" stroke="#000" stroke-width="2"/><path d="M600 558v-78h200V320h60.5" stroke="#000" stroke-width="2" fill="none"/><path d="M601 559h-2v-1.03h2z"/><path d="M875.76 320l-14.26 4.64v-9.28z" stroke="#000" stroke-width="2"/><path d="M722 640h138.5" stroke="#000" stroke-width="2" fill="none"/><path d="M722.03 641H721v-2h1.03z"/><path d="M875.76 640l-14.26 4.64v-9.28z" stroke="#000" stroke-width="2"/><path d="M1122 320h39v199h-161v21.5" stroke="#000" stroke-width="2" fill="none"/><path d="M1122.03 321H1121v-2h1.03z"/><path d="M1000 555.76l-4.64-14.26h9.28z" stroke="#000" stroke-width="2"/><defs><path d="M30-248c118-7 216 8 213 122C240-48 200 0 122 0H30v-248zM63-27c89 8 146-16 146-99s-60-101-146-95v194" id="g"/><path d="M114-163C36-179 61-72 57 0H25l-1-190h30c1 12-1 29 2 39 6-27 23-49 58-41v29" id="h"/><path d="M141-36C126-15 110 5 73 4 37 3 15-17 15-53c-1-64 63-63 125-63 3-35-9-54-41-54-24 1-41 7-42 31l-33-3c5-37 33-52 76-52 45 0 72 20 72 64v82c-1 20 7 32 28 27v20c-31 9-61-2-59-35zM48-53c0 20 12 33 32 33 41-3 63-29 60-74-43 2-92-5-92 41" id="i"/><path d="M101-234c-31-9-42 10-38 44h38v23H63V0H32v-167H5v-23h27c-7-52 17-82 69-68v24" id="j"/><path d="M59-47c-2 24 18 29 38 22v24C64 9 27 4 27-40v-127H5v-23h24l9-43h21v43h35v23H59v120" id="k"/><g id="a"><use transform="matrix(0.12407407407407395,0,0,0.12407407407407395,0,0)" xlink:href="#g"/><use transform="matrix(0.12407407407407395,0,0,0.12407407407407395,32.13518518518515,0)" xlink:href="#h"/><use transform="matrix(0.12407407407407395,0,0,0.12407407407407395,46.89999999999995,0)" xlink:href="#i"/><use transform="matrix(0.12407407407407395,0,0,0.12407407407407395,71.71481481481473,0)" xlink:href="#j"/><use transform="matrix(0.12407407407407395,0,0,0.12407407407407395,84.12222222222212,0)" xlink:href="#k"/></g><path d="M205 0l-28-72H64L36 0H1l101-248h38L239 0h-34zm-38-99l-47-123c-12 45-31 82-46 123h93" id="l"/><path d="M96-169c-40 0-48 33-48 73s9 75 48 75c24 0 41-14 43-38l32 2c-6 37-31 61-74 61-59 0-76-41-82-99-10-93 101-131 147-64 4 7 5 14 7 22l-32 3c-4-21-16-35-41-35" id="m"/><path d="M100-194c63 0 86 42 84 106H49c0 40 14 67 53 68 26 1 43-12 49-29l28 8c-11 28-37 45-77 45C44 4 14-33 15-96c1-61 26-98 85-98zm52 81c6-60-76-77-97-28-3 7-6 17-6 28h103" id="n"/><path d="M115-194c55 1 70 41 70 98S169 2 115 4C84 4 66-9 55-30l1 105H24l-1-265h31l2 30c10-21 28-34 59-34zm-8 174c40 0 45-34 45-75s-6-73-45-74c-42 0-51 32-51 76 0 43 10 73 51 73" id="o"/><path d="M85-194c31 0 48 13 60 33l-1-100h32l1 261h-30c-2-10 0-23-3-31C134-8 116 4 85 4 32 4 16-35 15-94c0-66 23-100 70-100zm9 24c-40 0-46 34-46 75 0 40 6 74 45 74 42 0 51-32 51-76 0-42-9-74-50-73" id="p"/><g id="b"><use transform="matrix(0.12407407407407395,0,0,0.12407407407407395,0,0)" xlink:href="#l"/><use transform="matrix(0.12407407407407395,0,0,0.12407407407407395,29.777777777777747,0)" xlink:href="#m"/><use transform="matrix(0.12407407407407395,0,0,0.12407407407407395,52.11111111111106,0)" xlink:href="#m"/><use transform="matrix(0.12407407407407395,0,0,0.12407407407407395,74.44444444444437,0)" xlink:href="#n"/><use transform="matrix(0.12407407407407395,0,0,0.12407407407407395,99.25925925925915,0)" xlink:href="#o"/><use transform="matrix(0.12407407407407395,0,0,0.12407407407407395,124.07407407407393,0)" xlink:href="#k"/><use transform="matrix(0.12407407407407395,0,0,0.12407407407407395,136.48148148148132,0)" xlink:href="#n"/><use transform="matrix(0.12407407407407395,0,0,0.12407407407407395,161.2962962962961,0)" xlink:href="#p"/></g><path d="M63-220v92h138v28H63V0H30v-248h175v28H63" id="q"/><path d="M24-231v-30h32v30H24zM24 0v-190h32V0H24" id="r"/><path d="M117-194c89-4 53 116 60 194h-32v-121c0-31-8-49-39-48C34-167 62-67 57 0H25l-1-190h30c1 10-1 24 2 32 11-22 29-35 61-36" id="s"/><path d="M24 0v-261h32V0H24" id="t"/><g id="c"><use transform="matrix(0.12407407407407395,0,0,0.12407407407407395,0,0)" xlink:href="#q"/><use transform="matrix(0.12407407407407395,0,0,0.12407407407407395,27.172222222222196,0)" xlink:href="#r"/><use transform="matrix(0.12407407407407395,0,0,0.12407407407407395,36.97407407407404,0)" xlink:href="#s"/><use transform="matrix(0.12407407407407395,0,0,0.12407407407407395,61.78888888888883,0)" xlink:href="#i"/><use transform="matrix(0.12407407407407395,0,0,0.12407407407407395,86.60370370370362,0)" xlink:href="#t"/></g><g id="d"><use transform="matrix(0.12407407407407395,0,0,0.12407407407407395,0,0)" xlink:href="#g"/><use transform="matrix(0.12407407407407395,0,0,0.12407407407407395,32.13518518518515,0)" xlink:href="#n"/><use transform="matrix(0.12407407407407395,0,0,0.12407407407407395,56.94999999999994,0)" xlink:href="#j"/><use transform="matrix(0.12407407407407395,0,0,0.12407407407407395,69.35740740740734,0)" xlink:href="#n"/><use transform="matrix(0.12407407407407395,0,0,0.12407407407407395,94.17222222222213,0)" xlink:href="#h"/><use transform="matrix(0.12407407407407395,0,0,0.12407407407407395,108.93703703703693,0)" xlink:href="#h"/><use transform="matrix(0.12407407407407395,0,0,0.12407407407407395,123.70185185185173,0)" xlink:href="#n"/><use transform="matrix(0.12407407407407395,0,0,0.12407407407407395,148.5166666666665,0)" xlink:href="#p"/></g><path d="M266 0h-40l-56-210L115 0H75L2-248h35L96-30l15-64 43-154h32l59 218 59-218h35" id="u"/><path d="M106-169C34-169 62-67 57 0H25v-261h32l-1 103c12-21 28-36 61-36 89 0 53 116 60 194h-32v-121c2-32-8-49-39-48" id="v"/><path d="M206 0h-36l-40-164L89 0H53L-1-190h32L70-26l43-164h34l41 164 42-164h31" id="w"/><g id="e"><use transform="matrix(0.12407407407407395,0,0,0.12407407407407395,0,0)" xlink:href="#u"/><use transform="matrix(0.12407407407407395,0,0,0.12407407407407395,42.06111111111107,0)" xlink:href="#r"/><use transform="matrix(0.12407407407407395,0,0,0.12407407407407395,51.86296296296291,0)" xlink:href="#k"/><use transform="matrix(0.12407407407407395,0,0,0.12407407407407395,64.2703703703703,0)" xlink:href="#v"/><use transform="matrix(0.12407407407407395,0,0,0.12407407407407395,89.08518518518508,0)" xlink:href="#p"/><use transform="matrix(0.12407407407407395,0,0,0.12407407407407395,113.89999999999986,0)" xlink:href="#h"/><use transform="matrix(0.12407407407407395,0,0,0.12407407407407395,128.66481481481466,0)" xlink:href="#i"/><use transform="matrix(0.12407407407407395,0,0,0.12407407407407395,153.47962962962944,0)" xlink:href="#w"/><use transform="matrix(0.12407407407407395,0,0,0.12407407407407395,185.6148148148146,0)" xlink:href="#s"/></g><path d="M233-177c-1 41-23 64-60 70L243 0h-38l-65-103H63V0H30v-248c88 3 205-21 203 71zM63-129c60-2 137 13 137-47 0-61-80-42-137-45v92" id="x"/><path d="M24-231v-30h32v30H24zM-9 49c24 4 33-6 33-30v-209h32V24c2 40-23 58-65 49V49" id="y"/><g id="f"><use transform="matrix(0.12407407407407395,0,0,0.12407407407407395,0,0)" xlink:href="#x"/><use transform="matrix(0.12407407407407395,0,0,0.12407407407407395,32.13518518518515,0)" xlink:href="#n"/><use transform="matrix(0.12407407407407395,0,0,0.12407407407407395,56.94999999999994,0)" xlink:href="#y"/><use transform="matrix(0.12407407407407395,0,0,0.12407407407407395,66.75185185185178,0)" xlink:href="#n"/><use transform="matrix(0.12407407407407395,0,0,0.12407407407407395,91.56666666666658,0)" xlink:href="#m"/><use transform="matrix(0.12407407407407395,0,0,0.12407407407407395,113.89999999999989,0)" xlink:href="#k"/><use transform="matrix(0.12407407407407395,0,0,0.12407407407407395,126.30740740740728,0)" xlink:href="#n"/><use transform="matrix(0.12407407407407395,0,0,0.12407407407407395,151.12222222222206,0)" xlink:href="#p"/></g></defs></g></svg>